<?xml version="1.0" encoding="utf-8" ?>
<svg xmlns="http://www.w3.org/2000/svg" xmlns:xlink="http://www.w3.org/1999/xlink" width="1024" height="1024">
	<path fill="#A7C957" transform="scale(2 2)" d="M350.134 437.962C344.421 438.148 338.636 437.965 332.916 437.964L121.012 437.977C96.6677 437.975 74.8182 426.761 74.0403 399.15C73.8284 391.626 74.0083 384.049 74.0129 376.517L74.0047 120.075C74.0041 115.403 73.7958 110.602 74.4397 105.966C76.9472 87.9102 93.4239 74.6069 111.377 74.2509C119.005 74.0997 126.658 74.245 134.289 74.2527L390.652 74.2438C412.283 74.2422 432.11 81.5702 437.048 105.789C438.49 112.861 437.995 120.487 437.993 127.678L437.985 230.037C437.985 242.81 437.753 255.626 437.984 268.394L437.994 387.505C438.001 409.732 434.399 430.544 408.151 436.98C399.938 438.993 360.214 438.507 350.134 437.962ZM252.535 166.422C251.534 166.721 246.9 167.076 248.62 168.568C230.901 165.263 216.079 167.178 200.962 177.487C171.398 197.648 166.297 241.778 191.396 267.764C192.237 268.634 193.385 269.569 194.063 270.558C193.414 273.07 197.928 277.423 199.476 278.981C199.313 292.495 199.475 306.036 199.47 319.552L199.471 333.39C199.476 339.666 197.985 343.861 204.267 347.251C205.087 349.96 212.212 355.894 214.405 358.082L280.944 422.75C286.131 427.684 291.682 432.55 296.375 437.962C300.202 437.652 304.22 437.957 308.073 437.961L343.77 437.943C345.754 437.921 348.204 437.558 350.134 437.962C360.214 438.507 399.938 438.993 408.151 436.98C434.399 430.544 438.001 409.732 437.994 387.505L437.984 268.394L437.608 266.749C433.658 262.532 429.26 258.606 425.164 254.513L362.715 192.056C358.897 188.217 339.566 167.412 336.259 166.422C330.089 166.676 323.816 166.425 317.636 166.415L273.451 166.428C266.504 166.435 259.47 166.151 252.535 166.422Z"/>
	<path fill="#6A994E" transform="scale(2 2)" d="M252.535 166.422C259.47 166.151 266.504 166.435 273.451 166.428L317.636 166.415C323.816 166.425 330.089 166.676 336.259 166.422C339.566 167.412 358.897 188.217 362.715 192.056L425.164 254.513C429.26 258.606 433.658 262.532 437.608 266.749L437.984 268.394L437.994 387.505C438.001 409.732 434.399 430.544 408.151 436.98C399.938 438.993 360.214 438.507 350.134 437.962C348.204 437.558 345.754 437.921 343.77 437.943L308.073 437.961C304.22 437.957 300.202 437.652 296.375 437.962C291.682 432.55 286.131 427.684 280.944 422.75L214.405 358.082C212.212 355.894 205.087 349.96 204.267 347.251C197.985 343.861 199.476 339.666 199.471 333.39L199.47 319.552C199.475 306.036 199.313 292.495 199.476 278.981C197.928 277.423 193.414 273.07 194.063 270.558C193.385 269.569 192.237 268.634 191.396 267.764C166.297 241.778 171.398 197.648 200.962 177.487C216.079 167.178 230.901 165.263 248.62 168.568C246.9 167.076 251.534 166.721 252.535 166.422ZM194.063 270.558C213.825 288.419 241.594 292.541 264.993 278.981C268.912 282.856 273.447 288.602 278.159 291.251C276.664 293.008 275.701 294.382 275.113 296.646L275.266 297.063C278.625 306.346 286.755 295.214 290.108 291.863C292.53 289.442 300.46 283.579 300.101 279.774C299.649 274.987 294.83 273.728 291.403 278.981C287.716 274.783 283.762 270.859 279.898 266.823C281.929 264.311 284.036 261.815 285.792 259.099C308.406 224.124 288.035 179.3 248.62 168.568C230.901 165.263 216.079 167.178 200.962 177.487C171.398 197.648 166.297 241.778 191.396 267.764C192.237 268.634 193.385 269.569 194.063 270.558ZM199.476 278.981C199.313 292.495 199.475 306.036 199.47 319.552L199.471 333.39C199.476 339.666 197.985 343.861 204.267 347.251C217.009 347.927 229.947 347.226 242.711 347.231L255.206 347.28C259.139 347.305 266.84 348.281 267.765 342.883C269.713 331.509 268.491 300.351 268.221 287.965C267.125 286.716 266.054 285.45 264.993 284.171C242.231 295.09 219.638 293.929 199.476 278.981ZM284.076 186.312C295.981 201.409 300.719 215.975 298.46 235.72C297.995 239.782 296.776 243.687 296.375 247.791C304.95 243.727 312.344 239.296 319.006 232.395C331.471 218.815 336.278 204.525 336.259 186.312L299.827 186.303C295.362 186.308 288.101 186.832 284.076 186.312ZM252.535 166.422C264.533 172.184 268.665 171.214 280.93 182.211L336.259 182.211C336.261 176.988 335.996 171.63 336.259 166.422C330.089 166.676 323.816 166.425 317.636 166.415L273.451 166.428C266.504 166.435 259.47 166.151 252.535 166.422ZM298.75 289.161C295.359 293.602 290.92 297.297 287.025 301.298C288.868 303.842 291.395 306.085 293.596 308.332L314.942 329.876C317.648 332.635 321.022 337.321 324.771 338.688C330.361 339.769 335.208 336.838 336.155 331.092C337.139 325.121 331.587 321.48 327.848 317.673C324.095 313.852 300.998 289.825 298.75 289.161Z"/>
	<path fill="#6A994E" transform="scale(2 2)" d="M229.694 183.518C283.789 179.758 294.831 250.495 250.921 267.43C247.539 268.734 243.918 269.571 240.427 270.558C237.449 270.154 234.422 270.282 231.428 270.033C181.121 265.852 178.735 189.346 229.694 183.518ZM215.033 222.622C209.368 222.745 205.049 226.357 210.797 231.135C212.766 231.483 214.609 231.358 216.584 231.135C214.677 251.219 233.419 262.408 249.812 248.815C253.585 243.643 254.799 237.414 255.07 231.135C260.388 231.991 265.289 229.064 261.635 224.538C259.039 221.322 246.539 222.609 242.715 222.603L215.033 222.622ZM219.631 206.74C217.686 208.496 217.226 210.004 216.584 212.494C227.634 212.253 238.754 212.466 249.812 212.494L252.535 212.494C252.168 210.657 251.981 208.656 250.72 207.19C248.643 206.175 223.977 206.738 219.631 206.74ZM231.554 199.087C227.333 199.657 224.345 200.992 221.376 204.086C227.063 204.431 232.888 204.058 238.594 204.086C241.892 204.053 245.349 204.338 248.62 204.086C243.907 199.64 237.834 198.376 231.554 199.087Z"/>
</svg>
