<svg width="1024" height="1024" xmlns="http://www.w3.org/2000/svg">

	<g>
		<title>Layer 1</title>
		<path id="svg_3" d="m254.413,102.191l1.387,-0.044c59.416,-1.509 110.093,49.778 111.395,108.478c1.338,60.286 -48.934,111.826 -108.983,113.104c-29.728,0.408 -58.127,-10.793 -79.555,-31.451c-71.733,-69.157 -21.026,-188.746 75.756,-190.087z" transform="scale(2 2)"/>
		<path id="svg_4" d="m252.922,115.224c21.734,-1.847 48.052,7.869 64.696,21.707c42.312,35.181 49.071,95.894 13.606,138.448c-19.099,22.917 -42.68,32.753 -71.417,35.365c-54.458,1.023 -100.365,-39.793 -101.511,-94.985c-1.101,-53.079 40.877,-99.504 94.626,-100.535z" transform="scale(2 2)" fill="#7FAF21"/>
		<path id="svg_5" d="m251.415,141.35c22.248,-3.767 42.876,15.304 43.436,37.879c0.265,10.672 -2.209,15.592 -6.41,24.969c18.638,0.061 15.358,1.398 15.304,20.579l0.022,25.606c0.025,30.22 -17.085,32.346 -42.392,32.284l-16.878,0.012c-34.941,-0.015 -36.522,-12.4 -36.463,-43.744l-0.057,-27.087c0.01,-10.498 6.247,-7.72 15.456,-7.65c-2.531,-5.865 -5.32,-11.773 -6.02,-18.196c-2.364,-21.699 11.599,-42.281 34.002,-44.652z" transform="scale(2 2)"/>
		<path id="svg_6" d="m252.922,154.075c12.224,-1.005 22.673,4.821 27.389,16.399c5.121,12.57 -1.275,23.193 -6.129,34.556l-13.447,0l-22.778,0c-2.683,-5.376 -6.836,-14.81 -7.683,-20.316c-2.285,-14.859 7.847,-28.413 22.648,-30.639z" transform="scale(2 2)" fill="white"/>
		<path id="svg_7" d="m220.927,217.486l69.796,0l0.021,24.873c0.006,8.472 1.483,15.939 -4.302,22.829c-3.552,3.394 -6.901,4.476 -11.793,4.537c-8.335,0.105 -36.36,1.203 -43.52,-0.4c-12.085,-2.705 -10.228,-15.969 -10.223,-25.245l0.021,-26.594z" transform="scale(2 2)" fill="white"/>
	</g>
</svg>