<?xml version="1.0" encoding="utf-8" ?>
<svg xmlns="http://www.w3.org/2000/svg" xmlns:xlink="http://www.w3.org/1999/xlink" width="1024" height="1024">
	<path fill="#230462" transform="scale(2 2)" d="M276.351 56.9457C301.974 55.9287 326.219 68.7387 340.104 90.4503C354.378 112.77 354.623 129.73 348.075 153.662L341.344 177.483C339.888 182.527 338.321 187.494 337.2 192.627C347.1 192.435 358.395 192.098 368.239 192.776C386.386 194.026 385.28 210.245 385.341 222.907C385.408 236.577 386.767 240.458 375.222 250.327C374.093 252.966 373.735 256.11 373.195 258.926C366.963 291.407 348.763 322.325 320.467 340.206C316.202 342.901 310.719 344.901 307.142 348.481L307.142 397.338C315.136 402.801 336.64 422.741 336.76 433.133C336.975 451.75 321.804 453.955 307.931 453.961L235.875 453.959L207.872 453.971C202.763 453.972 197.288 454.383 192.239 453.628C179.332 451.7 170.129 435.456 178.286 424.395C181.492 420.046 200.788 400.365 205.123 397.338C205.362 392.239 205.137 387.031 205.132 381.92L205.123 348.481C202.928 346.992 200.396 345.834 198.105 344.473C164.354 324.425 141.41 289.627 137.394 250.327C127.981 244.141 126.483 238.53 126.523 227.267L126.497 216.235C126.464 193.944 136.162 192.533 155.436 192.604L174.263 192.627C173.951 188.026 172.354 183.36 171.212 178.896L165.275 156.002C162.768 146.438 160.407 139.982 160.348 129.707C160.144 94.0431 187.225 61.205 223.151 57.3857C230.457 56.609 237.974 56.9397 245.314 56.9385L276.351 56.9457Z"/>
	<path fill="#C5DBF0" transform="scale(2 2)" d="M145.312 205.799L350.124 205.792C355.486 205.793 369.067 203.497 371.262 209.039C372.132 211.234 372.102 228.915 371.806 232.185C371.506 235.501 369.883 237.563 366.738 238.754C363.664 238.945 360.486 238.769 357.4 238.766L191.788 238.758C177.051 238.758 162.21 239.121 147.484 238.734C143.762 238.637 141.068 237.468 140.321 233.459C139.756 230.42 139.767 214.101 140.202 210.855C140.64 207.583 142.026 206.298 145.312 205.799Z"/>
	<path fill="#0544B8" transform="scale(2 2)" d="M218.422 353.443C248.054 361.599 262.716 362.214 293.512 353.443L293.505 383.275C293.499 403.484 291.041 400.649 306.592 415.203C311.817 420.094 319.666 425.962 323.504 431.837C324.082 444.29 307.795 440.562 299.083 440.534L205.714 440.504C202.38 440.518 186.613 441.611 188.552 433.928C189.822 428.894 212.151 410.232 216.949 402.949C220.036 398.264 218.436 390.543 218.433 385.219L218.422 353.443Z"/>
	<path fill="#0544B8" transform="scale(2 2)" d="M151.336 252.404C154.204 252.228 157.172 252.38 160.049 252.386L316.415 252.405C331.061 252.404 345.745 252.167 360.386 252.404C358.209 274.507 344.856 300.05 329.472 315.451C267.849 377.33 162.948 339.621 151.336 252.404Z"/>
	<path fill="#6083C5" transform="scale(2 2)" d="M232.344 70.572L263.685 70.5625C269.548 70.56 275.472 70.3875 281.329 70.6558C314.813 72.1898 342.531 102.26 338.134 136.241C337.561 140.665 336.002 144.856 334.823 149.137L327.627 175.236C326.218 180.338 323.77 186.99 323.524 192.154L323.504 192.627L281.062 192.627L189.132 192.627L179.925 157.371C177.762 149.212 174.657 140.774 174.288 132.306C172.773 97.5099 197.888 71.9812 232.344 70.572Z"/>
</svg>
